<?xml version="1.0" standalone="no"?>
<!DOCTYPE svg PUBLIC "-//W3C//DTD SVG 20010904//EN"
 "http://www.w3.org/TR/2001/REC-SVG-20010904/DTD/svg10.dtd">
<svg version="1.0" xmlns="http://www.w3.org/2000/svg"
 width="700.000000pt" height="700.000000pt" viewBox="0 0 700.000000 700.000000"
 preserveAspectRatio="xMidYMid meet">
<metadata>
Created by potrace 1.11, written by Peter Selinger 2001-2013
</metadata>
<g transform="translate(0.000000,700.000000) scale(0.100000,-0.100000)"
fill="#000000" stroke="none">
<path d="M2467 6254 c-1 -1 -27 -4 -57 -7 -123 -13 -246 -75 -343 -171 -105
-106 -169 -239 -182 -380 -3 -33 -7 -61 -8 -63 -2 -1 -269 -3 -593 -3 -636 -1
-642 -1 -786 -56 -124 -47 -247 -142 -334 -258 -64 -84 -123 -204 -138 -282
-3 -10 -9 -39 -15 -64 -17 -71 -10 -3572 7 -3625 58 -180 130 -291 263 -410
105 -93 270 -166 414 -183 69 -8 5546 -7 5615 0 177 21 326 95 452 224 123
126 191 254 227 429 11 55 11 3554 -1 3590 -3 11 -11 40 -18 65 -53 201 -233
409 -432 499 -145 66 -122 64 -805 68 l-623 4 0 42 c0 65 -27 164 -67 247 -51
108 -160 214 -274 268 -46 22 -109 46 -139 53 -43 10 -280 13 -1108 14 -579 0
-1054 0 -1055 -1z m2148 -370 c55 -30 94 -71 118 -124 18 -38 21 -68 23 -191
3 -156 12 -197 55 -239 57 -54 38 -53 794 -55 772 -2 749 0 848 -66 59 -39
129 -116 157 -173 46 -95 45 -71 44 -1827 0 -915 -4 -1684 -8 -1709 -3 -25 -8
-52 -9 -60 -30 -153 -164 -291 -321 -329 -78 -19 -5571 -17 -5643 2 -153 41
-283 180 -311 335 -6 32 -9 712 -8 1770 l2 1717 22 56 c34 86 94 162 163 208
115 77 80 74 865 76 669 1 702 2 739 21 21 10 53 36 69 57 l31 39 6 166 c3 93
11 180 17 195 31 72 97 128 177 148 17 4 503 6 1080 6 l1050 -2 40 -21z"/>
<path d="M3314 4812 c-556 -65 -1031 -399 -1278 -897 -123 -247 -175 -481
-170 -758 1 -67 5 -140 8 -162 17 -108 28 -165 42 -215 9 -30 17 -62 19 -70
13 -63 93 -249 147 -340 237 -401 607 -675 1048 -776 141 -33 206 -39 395 -38
126 0 185 5 275 23 552 111 982 457 1207 970 18 41 37 88 42 105 35 116 53
185 57 220 3 23 7 48 10 55 17 52 24 311 11 436 -49 470 -320 918 -712 1179
-333 221 -714 314 -1101 268z m356 -365 c111 -20 159 -31 236 -57 329 -112
605 -354 745 -657 58 -125 57 -121 78 -203 36 -133 45 -209 45 -360 0 -142
-10 -226 -40 -330 -85 -292 -244 -519 -487 -694 -135 -96 -274 -160 -436 -201
-124 -31 -164 -36 -290 -39 -376 -10 -763 168 -1011 465 -123 147 -228 370
-265 564 -19 101 -25 290 -12 395 12 99 17 124 54 239 80 253 233 473 438 628
83 63 218 140 295 168 25 9 54 21 65 26 32 13 175 47 229 54 28 3 51 7 53 9 4
4 274 -2 303 -7z"/>
<path d="M5754 4809 c-214 -81 -279 -355 -123 -524 113 -123 307 -138 438 -35
83 66 121 146 123 261 2 118 -70 233 -180 286 -75 35 -183 41 -258 12z"/>
</g>
</svg>
